<svg width="100" height="100" xmlns="http://www.w3.org/2000/svg" data-name="Layer 2"><g stroke="null" data-name="Layer 1"><path stroke="#8c8c94" stroke-width="3.5" stroke-miterlimit="10" fill="none" d="M50.501 30.12c-2.244-.213-4.245-.365-6.216-.638-3.154-.424-5.398-2.122-6.793-4.973-1.213-2.426-2.517-4.821-3.73-7.247-.849-1.668-1.303-3.426-.12-5.094 1.121-1.577 2.82-1.213 4.487-1.244 1.547-.03 3.275-.424 4.549-1.243 3.699-2.395 5.064-2.456 8.369.394 1.304 1.122 2.577 2.275 3.73 3.579 1.303 1.485 2.516 1.485 4.093.394 1.516-1.062 3.184-1.91 4.852-2.76 1.971-1 2.699-.576 2.426 1.668-.243 2.123-.758 4.215-1.425 6.247-.819 2.517-1.698 5.033-2.972 7.338-.637 1.152-2.062 2.274-3.336 2.578-2.607.636-5.367.727-7.853 1.03l-.061-.03zm27.23 25.289c-3.669-6.64-8.4-12.433-13.433-18.073-1.789-2.001-3.517-2.456-6.034-1.88-6.004 1.365-12.069 1.577-18.012-.515-1.486-.516-2.548.12-3.64 1.091-9.339 8.37-15.1 18.74-17.708 30.99-1.183 5.49-.394 10.523 2.972 15.072 4.306 5.791 10.37 8.46 17.254 9.4 7.065.97 14.13.576 21.196.09 11.401-.757 21.317-11.098 21.287-23.59-.243-3.791-1.516-8.34-3.912-12.615" class="cls-1"/><path fill="#8c8c94" d="M46.62 72.997h12.887v3.881H40.161v-.576c3.062-3.124 3.911-4.882 3.911-7.884a10.13 10.13 0 0 0-.454-2.942H40.07v-3.123h2.486a14.215 14.215 0 0 1-.697-4.397c0-5.094 3.881-8.794 9.734-8.794 4.184 0 6.731 1.82 8.308 4.033l-2.729 2.76c-1.152-1.729-2.88-2.911-5.428-2.911-3.517 0-5.58 2.274-5.58 5.367 0 1.516.334 2.76.728 3.942h8.855v3.123h-7.824c.182.728.304 1.547.304 2.426 0 2.062-.455 3.67-1.638 5.125l.03-.03z" stroke="none"/></g></svg>