<?xml version="1.0" encoding="UTF-8"?>
<svg version="1.1" xmlns="http://www.w3.org/2000/svg" width="150" height="150">
<path d="M0 0 C49.5 0 99 0 150 0 C150 49.5 150 99 150 150 C100.5 150 51 150 0 150 C0 100.5 0 51 0 0 Z " fill="#808080" transform="translate(0,0)"/>
<path d="M0 0 C20.79 0 41.58 0 63 0 C63 49.5 63 99 63 150 C41.88 150 20.76 150 -1 150 C0.485 149.01 0.485 149.01 2 148 C4.88351865 145.99005966 5.05554026 144.75210702 5.8515625 141.19921875 C6.03827515 140.10782593 6.03827515 140.10782593 6.22875977 138.99438477 C7.90991492 129.20680925 7.90991492 129.20680925 11.15234375 125.6171875 C13.39026229 124.17360309 15.5568848 123.04833488 18 122 C19.485 121.01 19.485 121.01 21 120 C23.05078125 120.171875 23.05078125 120.171875 25.3125 120.75 C26.11171875 120.94851562 26.9109375 121.14703125 27.734375 121.3515625 C29.53395768 121.86661547 31.3054623 122.47955758 33.0625 123.125 C36.85981192 124.25611419 40.09508682 124.96048268 44 124 C48.7036136 119.98233005 51.40195578 114.79277442 54.375 109.4375 C54.73335937 108.80062256 55.09171875 108.16374512 55.4609375 107.50756836 C57.57367982 103.52193362 58.82239651 100.49249435 58 96 C55.98821736 93.22552555 55.98821736 93.22552555 53.25 90.8125 C52.36828125 89.97332031 51.4865625 89.13414063 50.578125 88.26953125 C48.16470045 86.00070456 48.16470045 86.00070456 45.734375 84.66796875 C43.50836152 82.52718551 43.26486966 80.62745942 43.03857422 77.60400391 C42.85888778 67.80313226 42.85888778 67.80313226 46.6171875 63.5703125 C49.53867297 60.76036157 52.71860505 58.37242128 56 56 C58.25098214 54.15198741 58.25098214 54.15198741 58.36328125 51.3515625 C57.89595424 47.04009399 56.30745436 44.10255548 54.1875 40.375 C53.83107422 39.72015625 53.47464844 39.0653125 53.10742188 38.390625 C51.60950362 35.67513282 50.10843904 33.14378391 48.23828125 30.6640625 C47 29 47 29 47 27 C39.86072101 24.62024034 34.67561963 26.59654672 27.8671875 29.22265625 C23.04970723 30.52875785 19.31399375 29.0260433 14.9375 26.875 C10.80891349 24.36594817 9.29318434 22.12274482 7.97485352 17.45947266 C7.5150787 15.50170658 7.1158176 13.53003439 6.71875 11.55859375 C5.53490525 5.69727545 4.91182967 3.68387225 0 0 Z " fill="#F5F5F5" transform="translate(87,0)"/>
<path d="M0 0 C20.79 0 41.58 0 63 0 C61.35 1.65 59.7 3.3 58 5 C57.16451278 6.96505378 57.16451278 6.96505378 57.0234375 8.9609375 C56.86198242 10.03504883 56.86198242 10.03504883 56.69726562 11.13085938 C56.53774414 12.24170898 56.53774414 12.24170898 56.375 13.375 C55.51152692 18.05844614 54.82414107 21.15065583 51.4453125 24.6328125 C48.67071573 26.39177438 46.06007105 27.81197242 43 29 C42.35675781 29.25652344 41.71351562 29.51304688 41.05078125 29.77734375 C37.95917775 30.11300356 35.60305295 29.0800314 32.6875 28.0625 C25.95971081 25.72948942 25.95971081 25.72948942 19 26 C14.3847682 30.02605327 11.56536022 35.15714919 8.5625 40.4375 C8.19584229 41.05761963 7.82918457 41.67773926 7.45141602 42.31665039 C4.77072433 47.27175054 4.63282982 50.51371621 6 56 C6.99 56.66 7.98 57.32 9 58 C9 58.66 9 59.32 9 60 C9.5775 60.268125 10.155 60.53625 10.75 60.8125 C13.05550043 62.02929189 15.02056192 63.30333879 17 65 C17 65.66 17 66.32 17 67 C17.66 67 18.32 67 19 67 C20.22306559 81.15018936 20.22306559 81.15018936 17.4296875 85.375 C15.36343537 87.07199795 13.23402746 88.53329503 11 90 C7.49843621 93.15644046 5.1196778 95.44418859 4.75 100.25 C6.22001317 104.66003952 8.27200282 108.45025479 10.625 112.44921875 C11.83515355 114.6941911 12.53395243 116.51247109 13 119 C13.66 119 14.32 119 15 119 C15.103125 119.639375 15.20625 120.27875 15.3125 120.9375 C15.539375 121.618125 15.76625 122.29875 16 123 C23.30075908 125.43358636 29.02649 123.24694288 36.109375 120.875 C39 120 39 120 42 120 C42 120.66 42 121.32 42 122 C42.57621094 122.13148437 43.15242188 122.26296875 43.74609375 122.3984375 C47.90284558 123.5078652 51.08566124 124.72448251 54 128 C55.19011005 131.85492168 55.80003718 135.40629459 56.33203125 139.40625 C56.99798502 142.98915915 57.79759623 145.12284017 60 148 C62.59122743 148.88658466 62.59122743 148.88658466 65 149 C65 149.33 65 149.66 65 150 C43.55 150 22.1 150 0 150 C0 100.5 0 51 0 0 Z " fill="#F5F5F5" transform="translate(0,0)"/>
<path d="M0 0 C0 0.66 0 1.32 0 2 C0.99 2.33 1.98 2.66 3 3 C8.13450634 8.44568854 9.52358569 14.00811337 9.390625 21.33203125 C8.53763328 27.15796468 5.57061891 33.18910863 1 37 C0.34 37 -0.32 37 -1 37 C-1 37.66 -1 38.32 -1 39 C-7.97190607 41.76898397 -14.30820008 43.641078 -21.61328125 41.0859375 C-28.59103763 37.88133828 -32.07018248 34.46036245 -35.8125 27.75 C-37.73981114 21.66375428 -37.7372835 16.41665147 -35.875 10.3125 C-32.40374025 4.1799411 -28.17902408 -1.46264759 -21.14453125 -3.55078125 C-13.23715919 -5.20715245 -7.01653871 -3.79638809 0 0 Z " fill="#F5F5F5" transform="translate(89,56)"/>
</svg>
